<svg xmlns="http://www.w3.org/2000/svg" viewBox="0 0 200 54.4" xmlnsV="https://vecta.io/nano"><path d="M0,0h200v54.4H0V0z" fill="#fff"/><g stroke-width=".75" stroke-miterlimit="10"><path d="M18.9 18.3l-6.1 19.4h3.4l1.7-5.2h6.9l1.7 5.2H30l-6.1-19.4c0 0-5 0-5 0zm-.1 11.4l2.6-8.8 2.6 8.8h-5.2zm23.1-.2c4.2-1.2 4.9-7.6 1.8-9.9-2.5-2-8-1.6-11.4-1v19.1h3.4v-7.5c.9.1 1.7.1 2.6 0l5.2 7.5h3.8l-5.7-8c.1-.1.2-.1.3-.2zm-6.2-2c-.3 0 .6.1 0 0v-5.8c7.6-3.1 10.3 7.3 0 5.8zM59.5 35h0c-.5 0-1 .1-1.4.1-1.4 0-2.5-.3-3.5-.7s-1.7-1.2-2.2-2.2-.7-2.4-.7-4.2.3-3.3.8-4.3 1.2-1.8 2.3-2.2c1-.4 2.3-.7 3.8-.7l1.9.1 2 .3v-2.8c-.6-.2-1.3-.3-2-.3-.7-.1-1.4-.1-2.2-.1-2.2 0-3.9.3-5.5 1-1.5.7-2.6 1.7-3.4 3.2s-1.2 3.4-1.2 5.7.4 4.2 1.2 5.7 1.9 2.5 3.5 3.2 3.5 1 5.8 1l2.1-.1 2.3-.3v-9.2h-3.3V35h-.3zm10.1-5.7h7.6v-2.8h-7.6v-5.3h9v-2.8H66.1v19.4h12.7V35h-9.2v-5.7zm24.1 3l-8.6-14h-3.6v19.3h3.3v-14l8.6 14H97V18.3h-3.3v14zm5.2-10.5h6v15.9h3.6V21.8h6.1v-3.4H98.9v3.4z" fill="#00bb78" stroke="#00bb78"/><path d="M128.2 27.7c.7-.2 1.3-.4 1.8-.8.6-.4 1-.9 1.3-1.5s.4-1.3.4-2c0-1.2-.3-2.1-.8-2.9-.6-.8-1.4-1.4-2.6-1.7s-2.6-.5-4.5-.5l-1.9.1c-.7 0-1.3.1-1.9.2l-1.7.3v18.8c.5.1 1 .1 1.6.2s1.2.1 1.7.1h1.6c1.6 0 3-.1 4.1-.3 1.1-.3 2.1-.6 2.8-1a3.29 3.29 0 0 0 1.6-1.7c.3-.7.5-1.5.5-2.4 0-1.4-.4-2.5-1.2-3.2-.7-1-1.6-1.4-2.8-1.7h0zm-5.4-6.9c.4 0 .8-.1 1.4-.1 1.5 0 2.6.3 3.2.7s.9 1.2.9 2.2c0 .6-.2 1.2-.4 1.6-.3.4-.7.8-1.3.9-.6.3-1.4.3-2.5.3h-2.6v-5.6c.5.1.9 0 1.3 0h0zm5.6 13.2c-.3.4-.8.8-1.6 1-.8.3-1.7.3-2.9.3h-1.2c-.4 0-.8-.1-1.3-.1V29h3c1.5 0 2.6.3 3.3.8s1 1.3 1 2.4c.2.8 0 1.3-.3 1.8h0zm10.9-15.6l-6.1 19.2h3.5l1.7-5.6h7.1l1.8 5.6h3.5l-6.1-19.2h-5.4zm-.2 10.9l2.7-8.7 2.7 8.7h-5.4 0zm25.6 3l-8.6-13.9h-3.6v19.2h3.3V23.8l8.6 13.8h3.6V18.4h-3.3v13.9zm18.7 5.3h3.9l-7.3-9.9 6.8-9.3H183l-5.7 7.9h-2.1v-7.9h-3.5v19.2h3.5v-8.4h2l6.2 8.4z" fill="#005733" stroke="#005733"/></g></svg>