<svg xmlns="http://www.w3.org/2000/svg" viewBox="0 0 150 150" xmlnsV="https://vecta.io/nano"><path d="M45.7 90.2h-5.9c-7.1 0-11.7-4.6-11.7-11.7v-34c0-5.4 3.1-9.5 8.2-10.8 1-.3 2.1-.4 3.2-.4h52.1c6.8 0 11.5 4.7 11.5 11.5v33.9c0 6.7-4.7 11.5-11.4 11.5H66.2c-1.2 0-2 .4-2.8 1.3-2.4 2.5-4.7 5.2-7.4 7.4-3.4 2.8-7.4 4.5-11.5 6a6.72 6.72 0 0 1-2.8.3c-1.5-.2-1.8-1-.9-2.2 2.2-2.8 3.3-6 4.2-9.3.3-1.1.5-2.3.7-3.5h0zm-3.1-27.9c0 2.9 2.4 5.3 5.3 5.2 2.8 0 5.3-2.5 5.3-5.3 0-2.9-2.4-5.2-5.3-5.2-3 .1-5.3 2.4-5.3 5.3zM66 66.9c2.9 0 5.2-2.3 5.2-5.2a5.34 5.34 0 0 0-5.3-5.3c-2.8 0-5.3 2.4-5.3 5.3.1 2.9 2.5 5.2 5.4 5.2h0zm23.3-5.8c0-2.9-2.3-5.2-5.3-5.2a5.34 5.34 0 0 0-5.3 5.3c0 2.8 2.3 5.1 5.2 5.2 3 0 5.4-2.4 5.4-5.3zm20.6-9.4c6.3-1 11.7 3.8 11.7 10.4v32.6c-.1 6.1-4.4 10.5-10.5 10.6h-1.9c.2 1.6.2 3.1.6 4.5.6 1.8 1.5 3.5 2.3 5.3.5 1.1.3 1.7-.8 1.7-1.4.1-2.8.1-4.1-.3-5.4-1.9-9.7-5.2-12.1-10.6-.4-.8-.9-.7-1.4-.7H67.5c-2.3 0-4.3-.6-5.5-2.9l5.3-5.7c.3-.3 1-.4 1.5-.4h30.5c6.3 0 10.6-4.3 10.6-10.6V51.7h0z"/></svg>