<svg xmlns="http://www.w3.org/2000/svg" viewBox="0 0 150.1 150.1" xmlnsV="https://vecta.io/nano"><path d="M36.2 44.3V48h86.2v45h3.7V44.3H36.2zm-6.5 6.4v3.7h86.2v45h3.7V50.7H29.7zm-4.4 6.2V104h88V56.9h-88zm84.3 43.3H29.1V60.5h80.6v39.7h-.1zM50.1 80.3c0-7.8 4.7-14.5 11.4-17.4H31.4v34.9h30.3c-6.8-2.8-11.6-9.6-11.6-17.5zm26.6-17.4c6.7 3 11.4 9.6 11.4 17.4 0 7.9-4.8 14.6-11.6 17.5h30.7V62.9c.1 0-30.5 0-30.5 0zm-9.3 31.7v-3.3c-2.3-.1-4.5-.8-5.8-1.5l1-4c1.5.8 3.5 1.5 5.7 1.5 2 0 3.3-.8 3.3-2.1s-1.1-2.1-3.7-3c-3.7-1.2-6.2-3-6.2-6.3 0-3.1 2.1-5.4 5.8-6.1v-3.3h3.4v3c2.3.1 3.8.6 5 1.1l-1 3.9c-.9-.4-2.5-1.2-4.9-1.2-2.2 0-3 1-3 2 0 1.1 1.2 1.9 4.2 2.9 4.1 1.5 5.7 3.3 5.7 6.5 0 3.1-2.1 5.7-6.1 6.3v3.5l-3.4.1h0z"/></svg>