<svg xmlns="http://www.w3.org/2000/svg" viewBox="0 0 150 150" xmlnsV="https://vecta.io/nano"><path d="M110.3 43.9L75.1 33.3 39.9 43.9c-6.3 46.8 12.4 67.5 35.2 72.5 22.8-5 41.5-25.7 35.2-72.5h0zm-9.8 16.8L70.2 90.8c-.9.9-2.4.9-3.3 0l-2-2h0L51.5 75.5c-1-1-1-2.6 0-3.6h0c1-1 2.6-1 3.6 0l13.4 13.3 28.3-28.1c1-1 2.6-1 3.6 0h0a2.45 2.45 0 0 1 .1 3.6h0zm15.3-21.8L75 26.6 34.1 38.9C26.9 93.3 48.5 117.3 75 123c26.4-5.7 48.1-29.7 40.8-84.1zm-40.7 81.3c-24.8-5.4-45.1-27.9-38.3-79l38.3-11.5 38.3 11.5c6.9 51.1-13.5 73.6-38.3 79h0z"/></svg>