<?xml version="1.0" encoding="utf-8"?>
<!-- Generator: Adobe Illustrator 25.2.0, SVG Export Plug-In . SVG Version: 6.00 Build 0)  -->
<svg version="1.1" id="Calque_1" xmlns:v="https://vecta.io/nano"
	 xmlns="http://www.w3.org/2000/svg" xmlns:xlink="http://www.w3.org/1999/xlink" x="0px" y="0px" viewBox="0 0 136 136"
	 style="enable-background:new 0 0 136 136;" xml:space="preserve">
<style type="text/css">
	.st0{display:none;fill:#FFFFFF;}
	.st1{fill:#59AD71;}
	.st2{fill:#244B30;}
	.st3{fill:#3E4347;}
	.st4{fill:#DFE9EF;}
	.st5{fill:#B0BDC6;}
	.st6{fill:#CDD851;}
</style>
<rect x="-215.5" y="522.5" class="st0" width="108" height="108"/>
<g>
	<g>
		<path class="st1" d="M17,50.5v53.4c0,4,3.3,7.3,7.3,7.3h87.4c4,0,7.3-3.3,7.3-7.3V50.5H17z"/>
		<path class="st2" d="M119,43.2c0-4-3.3-7.3-7.3-7.3H24.3c-4,0-7.3,3.3-7.3,7.3v7.3h102V43.2z"/>
		<ellipse class="st3" cx="34.6" cy="42.5" rx="10.1" ry="4.3"/>
		<ellipse class="st3" cx="101.4" cy="42.5" rx="10.1" ry="4.3"/>
		<path class="st4" d="M68,2.5c-21.9,0-39.8,17.9-39.8,40c0,1.3,2.7,2.4,6.4,2.4v-2.4h0C35.9,23.8,50.4,9.1,68,9.1
			c17.6,0,32.1,14.8,33.4,33.4h0v2.4c3.7,0,6.4-1.1,6.4-2.4C107.8,20.4,90,2.5,68,2.5z"/>
		<path class="st5" d="M101.4,42.5C100.1,23.8,85.6,9.1,68,9.1c-17.6,0-32.1,14.8-33.4,33.4h0v2.4c3.7,0,7.1-1.1,7.1-2.4
			c0-12.1,10-26.4,26.3-26.4c16.2,0,26.3,14.3,26.3,26.4c0,1.3,3.4,2.4,7.1,2.4L101.4,42.5z"/>
		<path class="st2" d="M75.8,98.3l-3.3-20.8c1.9-1.4,3.2-3.7,3.2-6.3c0-4.3-3.5-7.8-7.8-7.8c-4.3,0-7.8,3.5-7.8,7.8
			c0,2.6,1.3,4.9,3.2,6.3l-3.2,20.8H75.8z"/>
		<path class="st6" d="M32,105.7c4.1,0,7.4,3.3,7.4,7.4c0,4.1-3.3,7.4-7.4,7.4c-4.1,0-7.4-3.3-7.4-7.4C24.6,109,28,105.7,32,105.7z
			 M60.6,120.6h13.1l3.5-3.7h6l3.5,3.7h7.9l3.5-3.7h6l3.5,3.7h5.5l6-7.5l-6-7.5H60.6c-3.1-8.7-11.4-14.9-21.1-14.9
			c-12.4,0-22.4,10-22.4,22.4c0,12.4,10,22.4,22.4,22.4C49.2,135.5,57.5,129.3,60.6,120.6z"/>
	</g>
</g>
</svg>
